<svg width="310" height="123" viewBox="0 0 310 123" fill="none" xmlns="http://www.w3.org/2000/svg">
<path d="M127 24.4709C127 16.9742 128.94 11.0313 132.819 6.64209C136.737 2.21403 141.799 0 148.006 0C152.079 0 155.57 1.10702 158.479 3.32105C161.389 5.53508 163.542 8.31233 164.938 11.6528L157.49 14.0999C154.969 9.67182 151.769 7.45779 147.889 7.45779C144.243 7.45779 141.334 9.01149 139.161 12.1189C137.028 15.1875 135.961 19.3048 135.961 24.4709C135.961 29.7146 137.047 33.8902 139.219 36.9976C141.392 40.0662 144.282 41.6005 147.889 41.6005C150.256 41.6005 152.37 40.8625 154.232 39.3864C156.094 37.8716 157.432 36.046 158.247 33.9096L166.102 36.2985C165.52 37.7745 164.764 39.1922 163.833 40.5517C162.902 41.9112 161.719 43.2707 160.283 44.6302C158.848 45.9509 157.064 47.019 154.93 47.8347C152.835 48.6116 150.527 49 148.006 49C141.915 49 136.892 46.8248 132.935 42.4744C128.978 38.1241 127 32.1229 127 24.4709Z" fill="white"/>
<path d="M177.565 38.0464C177.565 39.1728 177.992 40.1245 178.845 40.9013C179.737 41.6782 180.921 42.0666 182.395 42.0666C184.606 42.0666 186.487 41.3286 188.039 39.8526C189.59 38.3765 190.366 36.4344 190.366 34.0262V31.346C188.815 31.7344 186.836 32.1034 184.431 32.453C179.854 33.191 177.565 35.0555 177.565 38.0464ZM169.07 38.7455C169.07 35.5993 170.253 33.0163 172.619 30.9964C175.024 28.9766 178.593 27.6171 183.326 26.918C187.05 26.2965 189.396 25.8498 190.366 25.5779V23.7717C190.366 22.2568 189.823 21.111 188.737 20.3341C187.651 19.5184 186.216 19.1106 184.431 19.1106C180.862 19.1106 177.72 20.5866 175.005 23.5386L170.001 19.2271C173.725 14.799 178.515 12.585 184.373 12.585C189.532 12.585 193.198 13.828 195.37 16.3139C197.582 18.761 198.687 22.2568 198.687 26.8014V47.9512H190.599V44.0476C189.862 45.4071 188.64 46.5723 186.933 47.5434C185.265 48.5145 183.345 49 181.173 49C177.449 49 174.5 48.0484 172.328 46.1451C170.156 44.2418 169.07 41.7753 169.07 38.7455Z" fill="white"/>
<path d="M205.844 47.9512V13.6338H213.816V16.8966C214.514 15.7313 215.542 14.7214 216.9 13.8668C218.296 13.0123 219.906 12.585 221.729 12.585C223.514 12.585 224.969 12.7987 226.093 13.2259V20.8585C224.736 20.4312 223.3 20.2176 221.788 20.2176C219.305 20.2176 217.404 21.1887 216.085 23.1308C214.805 25.0729 214.165 27.6754 214.165 30.9382V47.9512H205.844Z" fill="white"/>
<path d="M227.665 20.6837V13.6338H232.785V3.67063H241.048V13.6338H248.496V20.6837H241.048V36.648C241.048 39.4447 242.27 40.843 244.714 40.843H248.554V47.9512H243.666C240.33 47.9512 237.673 47.0967 235.694 45.3876C233.755 43.6786 232.785 40.9402 232.785 37.1724V20.6837H227.665Z" fill="white"/>
<path d="M252.278 30.6468C252.278 25.0924 253.791 20.7031 256.817 17.4792C259.881 14.2164 263.721 12.585 268.338 12.585C272.838 12.585 276.581 14.2358 279.568 17.5375C282.594 20.8391 284.107 25.1506 284.107 30.4721C284.107 31.9092 284.068 32.9774 283.99 33.6766H260.715C260.715 36.046 261.433 38.0852 262.868 39.7943C264.342 41.5034 266.34 42.3579 268.861 42.3579C270.646 42.3579 272.217 41.9112 273.575 41.0178C274.971 40.0856 276.018 38.9203 276.717 37.522L283.641 39.9691C282.555 42.5327 280.712 44.6885 278.113 46.4364C275.553 48.1455 272.391 49 268.629 49C263.818 49 259.881 47.3492 256.817 44.0476C253.791 40.7071 252.278 36.2402 252.278 30.6468ZM260.773 27.9084H275.669C275.669 25.5002 275.01 23.4415 273.691 21.7325C272.411 20.0234 270.626 19.1688 268.338 19.1688C266.01 19.1688 264.168 20.0428 262.81 21.7907C261.491 23.4998 260.812 25.539 260.773 27.9084Z" fill="white"/>
<path d="M289.751 47.9512V13.6338H297.722V16.8966C298.421 15.7313 299.449 14.7214 300.806 13.8668C302.203 13.0123 303.813 12.585 305.636 12.585C307.42 12.585 308.875 12.7987 310 13.2259V20.8585C308.642 20.4312 307.207 20.2176 305.694 20.2176C303.211 20.2176 301.311 21.1887 299.992 23.1308C298.712 25.0729 298.072 27.6754 298.072 30.9382V47.9512H289.751Z" fill="white"/>
<path d="M28.5156 85.3516C28.5156 89.1276 29.9479 92.3177 32.8125 94.9219C35.8073 97.526 39.7786 98.8281 44.7266 98.8281C52.1484 98.8281 58.4635 96.3542 63.6719 91.4062C68.8802 86.4583 71.4844 79.9479 71.4844 71.875V62.8906C66.276 64.1927 59.6354 65.4297 51.5625 66.6016C36.1979 69.0755 28.5156 75.3255 28.5156 85.3516ZM0 87.6953C0 77.1484 3.97135 68.4896 11.9141 61.7188C19.987 54.9479 31.9661 50.3906 47.8516 48.0469C60.3516 45.9635 68.2292 44.4661 71.4844 43.5547V37.5C71.4844 32.4219 69.6615 28.5807 66.0156 25.9766C62.3698 23.2422 57.5521 21.875 51.5625 21.875C39.5833 21.875 29.0365 26.8229 19.9219 36.7188L3.125 22.2656C15.625 7.42188 31.7057 0 51.3672 0C68.6849 0 80.9896 4.16667 88.2812 12.5C95.7031 20.7031 99.4141 32.4219 99.4141 47.6562V118.555H72.2656V105.469C69.7917 110.026 65.6901 113.932 59.9609 117.188C54.362 120.443 47.9167 122.07 40.625 122.07C28.125 122.07 18.2292 118.88 10.9375 112.5C3.64583 106.12 0 97.8516 0 87.6953Z" fill="white"/>
<circle cx="137" cy="112" r="10" fill="#D5520D"/>
<line x1="127" y1="78" x2="310" y2="78" stroke="white" stroke-opacity="0.4" stroke-width="4"/>
</svg>
